<?xml version="1.0" encoding="utf-8" standalone="no"?>
<!DOCTYPE svg PUBLIC "-//W3C//DTD SVG 1.1//EN"
  "http://www.w3.org/Graphics/SVG/1.1/DTD/svg11.dtd">
<!-- Created with matplotlib (https://matplotlib.org/) -->
<svg height="236.16pt" version="1.1" viewBox="0 0 419.76 236.16" width="419.76pt" xmlns="http://www.w3.org/2000/svg" xmlns:xlink="http://www.w3.org/1999/xlink">
 <defs>
  <style type="text/css">
*{stroke-linecap:butt;stroke-linejoin:round;}
  </style>
 </defs>
 <g id="figure_1">
  <g id="patch_1">
   <path d="M 0 236.16 
L 419.76 236.16 
L 419.76 0 
L 0 0 
z
" style="fill:none;"/>
  </g>
  <g id="axes_1">
   <g id="patch_2">
    <path d="M 52.47 210.1824 
L 377.784 210.1824 
L 377.784 28.3392 
L 52.47 28.3392 
z
" style="fill:none;"/>
   </g>
   <g id="matplotlib.axis_1">
    <g id="xtick_1">
     <g id="line2d_1">
      <path clip-path="url(#pfdbc5220c2)" d="M 103.881036 210.1824 
L 103.881036 28.3392 
" style="fill:none;stroke:#808080;stroke-dasharray:0.7,1.155;stroke-dashoffset:0;stroke-opacity:0.8;stroke-width:0.7;"/>
     </g>
     <g id="line2d_2">
      <defs>
       <path d="M 0 0 
L 0 -3.5 
" id="mc0a941c5fb" style="stroke:#000000;stroke-width:0.8;"/>
      </defs>
      <g>
       <use style="fill-opacity:0;stroke:#000000;stroke-width:0.8;" x="103.881036" xlink:href="#mc0a941c5fb" y="210.1824"/>
      </g>
     </g>
     <g id="line2d_3">
      <defs>
       <path d="M 0 0 
L 0 3.5 
" id="m81ac0a906c" style="stroke:#000000;stroke-width:0.8;"/>
      </defs>
      <g>
       <use style="fill-opacity:0;stroke:#000000;stroke-width:0.8;" x="103.881036" xlink:href="#m81ac0a906c" y="28.3392"/>
      </g>
     </g>
     <g id="text_1">
      <!-- $\mathdefault{10^{-2}}$ -->
      <defs>
       <path d="M 12.40625 8.296875 
L 28.515625 8.296875 
L 28.515625 63.921875 
L 10.984375 60.40625 
L 10.984375 69.390625 
L 28.421875 72.90625 
L 38.28125 72.90625 
L 38.28125 8.296875 
L 54.390625 8.296875 
L 54.390625 0 
L 12.40625 0 
z
" id="DejaVuSans-49"/>
       <path d="M 31.78125 66.40625 
Q 24.171875 66.40625 20.328125 58.90625 
Q 16.5 51.421875 16.5 36.375 
Q 16.5 21.390625 20.328125 13.890625 
Q 24.171875 6.390625 31.78125 6.390625 
Q 39.453125 6.390625 43.28125 13.890625 
Q 47.125 21.390625 47.125 36.375 
Q 47.125 51.421875 43.28125 58.90625 
Q 39.453125 66.40625 31.78125 66.40625 
z
M 31.78125 74.21875 
Q 44.046875 74.21875 50.515625 64.515625 
Q 56.984375 54.828125 56.984375 36.375 
Q 56.984375 17.96875 50.515625 8.265625 
Q 44.046875 -1.421875 31.78125 -1.421875 
Q 19.53125 -1.421875 13.0625 8.265625 
Q 6.59375 17.96875 6.59375 36.375 
Q 6.59375 54.828125 13.0625 64.515625 
Q 19.53125 74.21875 31.78125 74.21875 
z
" id="DejaVuSans-48"/>
       <path d="M 10.59375 35.5 
L 73.1875 35.5 
L 73.1875 27.203125 
L 10.59375 27.203125 
z
" id="DejaVuSans-8722"/>
       <path d="M 19.1875 8.296875 
L 53.609375 8.296875 
L 53.609375 0 
L 7.328125 0 
L 7.328125 8.296875 
Q 12.9375 14.109375 22.625 23.890625 
Q 32.328125 33.6875 34.8125 36.53125 
Q 39.546875 41.84375 41.421875 45.53125 
Q 43.3125 49.21875 43.3125 52.78125 
Q 43.3125 58.59375 39.234375 62.25 
Q 35.15625 65.921875 28.609375 65.921875 
Q 23.96875 65.921875 18.8125 64.3125 
Q 13.671875 62.703125 7.8125 59.421875 
L 7.8125 69.390625 
Q 13.765625 71.78125 18.9375 73 
Q 24.125 74.21875 28.421875 74.21875 
Q 39.75 74.21875 46.484375 68.546875 
Q 53.21875 62.890625 53.21875 53.421875 
Q 53.21875 48.921875 51.53125 44.890625 
Q 49.859375 40.875 45.40625 35.40625 
Q 44.1875 33.984375 37.640625 27.21875 
Q 31.109375 20.453125 19.1875 8.296875 
z
" id="DejaVuSans-50"/>
      </defs>
      <g transform="translate(94.481036 219.76115)scale(0.08 -0.08)">
       <use transform="translate(0 0.765625)" xlink:href="#DejaVuSans-49"/>
       <use transform="translate(63.623047 0.765625)" xlink:href="#DejaVuSans-48"/>
       <use transform="translate(128.203125 39.046875)scale(0.7)" xlink:href="#DejaVuSans-8722"/>
       <use transform="translate(186.855469 39.046875)scale(0.7)" xlink:href="#DejaVuSans-50"/>
      </g>
     </g>
    </g>
    <g id="xtick_2">
     <g id="line2d_4">
      <path clip-path="url(#pfdbc5220c2)" d="M 177.929477 210.1824 
L 177.929477 28.3392 
" style="fill:none;stroke:#808080;stroke-dasharray:0.7,1.155;stroke-dashoffset:0;stroke-opacity:0.8;stroke-width:0.7;"/>
     </g>
     <g id="line2d_5">
      <g>
       <use style="fill-opacity:0;stroke:#000000;stroke-width:0.8;" x="177.929477" xlink:href="#mc0a941c5fb" y="210.1824"/>
      </g>
     </g>
     <g id="line2d_6">
      <g>
       <use style="fill-opacity:0;stroke:#000000;stroke-width:0.8;" x="177.929477" xlink:href="#m81ac0a906c" y="28.3392"/>
      </g>
     </g>
     <g id="text_2">
      <!-- $\mathdefault{10^{-1}}$ -->
      <g transform="translate(168.529477 219.76115)scale(0.08 -0.08)">
       <use transform="translate(0 0.684375)" xlink:href="#DejaVuSans-49"/>
       <use transform="translate(63.623047 0.684375)" xlink:href="#DejaVuSans-48"/>
       <use transform="translate(128.203125 38.965625)scale(0.7)" xlink:href="#DejaVuSans-8722"/>
       <use transform="translate(186.855469 38.965625)scale(0.7)" xlink:href="#DejaVuSans-49"/>
      </g>
     </g>
    </g>
    <g id="xtick_3">
     <g id="line2d_7">
      <path clip-path="url(#pfdbc5220c2)" d="M 251.977919 210.1824 
L 251.977919 28.3392 
" style="fill:none;stroke:#808080;stroke-dasharray:0.7,1.155;stroke-dashoffset:0;stroke-opacity:0.8;stroke-width:0.7;"/>
     </g>
     <g id="line2d_8">
      <g>
       <use style="fill-opacity:0;stroke:#000000;stroke-width:0.8;" x="251.977919" xlink:href="#mc0a941c5fb" y="210.1824"/>
      </g>
     </g>
     <g id="line2d_9">
      <g>
       <use style="fill-opacity:0;stroke:#000000;stroke-width:0.8;" x="251.977919" xlink:href="#m81ac0a906c" y="28.3392"/>
      </g>
     </g>
     <g id="text_3">
      <!-- $\mathdefault{10^{0}}$ -->
      <g transform="translate(244.937919 219.76115)scale(0.08 -0.08)">
       <use transform="translate(0 0.765625)" xlink:href="#DejaVuSans-49"/>
       <use transform="translate(63.623047 0.765625)" xlink:href="#DejaVuSans-48"/>
       <use transform="translate(128.203125 39.046875)scale(0.7)" xlink:href="#DejaVuSans-48"/>
      </g>
     </g>
    </g>
    <g id="xtick_4">
     <g id="line2d_10">
      <path clip-path="url(#pfdbc5220c2)" d="M 326.02636 210.1824 
L 326.02636 28.3392 
" style="fill:none;stroke:#808080;stroke-dasharray:0.7,1.155;stroke-dashoffset:0;stroke-opacity:0.8;stroke-width:0.7;"/>
     </g>
     <g id="line2d_11">
      <g>
       <use style="fill-opacity:0;stroke:#000000;stroke-width:0.8;" x="326.02636" xlink:href="#mc0a941c5fb" y="210.1824"/>
      </g>
     </g>
     <g id="line2d_12">
      <g>
       <use style="fill-opacity:0;stroke:#000000;stroke-width:0.8;" x="326.02636" xlink:href="#m81ac0a906c" y="28.3392"/>
      </g>
     </g>
     <g id="text_4">
      <!-- $\mathdefault{10^{1}}$ -->
      <g transform="translate(318.98636 219.76115)scale(0.08 -0.08)">
       <use transform="translate(0 0.684375)" xlink:href="#DejaVuSans-49"/>
       <use transform="translate(63.623047 0.684375)" xlink:href="#DejaVuSans-48"/>
       <use transform="translate(128.203125 38.965625)scale(0.7)" xlink:href="#DejaVuSans-49"/>
      </g>
     </g>
    </g>
    <g id="xtick_5">
     <g id="line2d_13">
      <defs>
       <path d="M 0 0 
L 0 -2 
" id="m637db1ecd0" style="stroke:#000000;stroke-width:0.4;"/>
      </defs>
      <g>
       <use style="fill-opacity:0;stroke:#000000;stroke-width:0.4;" x="65.16268" xlink:href="#m637db1ecd0" y="210.1824"/>
      </g>
     </g>
     <g id="line2d_14">
      <defs>
       <path d="M 0 0 
L 0 2 
" id="m69e7ba62c5" style="stroke:#000000;stroke-width:0.4;"/>
      </defs>
      <g>
       <use style="fill-opacity:0;stroke:#000000;stroke-width:0.4;" x="65.16268" xlink:href="#m69e7ba62c5" y="28.3392"/>
      </g>
     </g>
    </g>
    <g id="xtick_6">
     <g id="line2d_15">
      <g>
       <use style="fill-opacity:0;stroke:#000000;stroke-width:0.4;" x="74.414198" xlink:href="#m637db1ecd0" y="210.1824"/>
      </g>
     </g>
     <g id="line2d_16">
      <g>
       <use style="fill-opacity:0;stroke:#000000;stroke-width:0.4;" x="74.414198" xlink:href="#m69e7ba62c5" y="28.3392"/>
      </g>
     </g>
    </g>
    <g id="xtick_7">
     <g id="line2d_17">
      <g>
       <use style="fill-opacity:0;stroke:#000000;stroke-width:0.4;" x="81.590234" xlink:href="#m637db1ecd0" y="210.1824"/>
      </g>
     </g>
     <g id="line2d_18">
      <g>
       <use style="fill-opacity:0;stroke:#000000;stroke-width:0.4;" x="81.590234" xlink:href="#m69e7ba62c5" y="28.3392"/>
      </g>
     </g>
    </g>
    <g id="xtick_8">
     <g id="line2d_19">
      <g>
       <use style="fill-opacity:0;stroke:#000000;stroke-width:0.4;" x="87.453482" xlink:href="#m637db1ecd0" y="210.1824"/>
      </g>
     </g>
     <g id="line2d_20">
      <g>
       <use style="fill-opacity:0;stroke:#000000;stroke-width:0.4;" x="87.453482" xlink:href="#m69e7ba62c5" y="28.3392"/>
      </g>
     </g>
    </g>
    <g id="xtick_9">
     <g id="line2d_21">
      <g>
       <use style="fill-opacity:0;stroke:#000000;stroke-width:0.4;" x="92.410787" xlink:href="#m637db1ecd0" y="210.1824"/>
      </g>
     </g>
     <g id="line2d_22">
      <g>
       <use style="fill-opacity:0;stroke:#000000;stroke-width:0.4;" x="92.410787" xlink:href="#m69e7ba62c5" y="28.3392"/>
      </g>
     </g>
    </g>
    <g id="xtick_10">
     <g id="line2d_23">
      <g>
       <use style="fill-opacity:0;stroke:#000000;stroke-width:0.4;" x="96.705" xlink:href="#m637db1ecd0" y="210.1824"/>
      </g>
     </g>
     <g id="line2d_24">
      <g>
       <use style="fill-opacity:0;stroke:#000000;stroke-width:0.4;" x="96.705" xlink:href="#m69e7ba62c5" y="28.3392"/>
      </g>
     </g>
    </g>
    <g id="xtick_11">
     <g id="line2d_25">
      <g>
       <use style="fill-opacity:0;stroke:#000000;stroke-width:0.4;" x="100.492765" xlink:href="#m637db1ecd0" y="210.1824"/>
      </g>
     </g>
     <g id="line2d_26">
      <g>
       <use style="fill-opacity:0;stroke:#000000;stroke-width:0.4;" x="100.492765" xlink:href="#m69e7ba62c5" y="28.3392"/>
      </g>
     </g>
    </g>
    <g id="xtick_12">
     <g id="line2d_27">
      <g>
       <use style="fill-opacity:0;stroke:#000000;stroke-width:0.4;" x="126.171838" xlink:href="#m637db1ecd0" y="210.1824"/>
      </g>
     </g>
     <g id="line2d_28">
      <g>
       <use style="fill-opacity:0;stroke:#000000;stroke-width:0.4;" x="126.171838" xlink:href="#m69e7ba62c5" y="28.3392"/>
      </g>
     </g>
    </g>
    <g id="xtick_13">
     <g id="line2d_29">
      <g>
       <use style="fill-opacity:0;stroke:#000000;stroke-width:0.4;" x="139.211121" xlink:href="#m637db1ecd0" y="210.1824"/>
      </g>
     </g>
     <g id="line2d_30">
      <g>
       <use style="fill-opacity:0;stroke:#000000;stroke-width:0.4;" x="139.211121" xlink:href="#m69e7ba62c5" y="28.3392"/>
      </g>
     </g>
    </g>
    <g id="xtick_14">
     <g id="line2d_31">
      <g>
       <use style="fill-opacity:0;stroke:#000000;stroke-width:0.4;" x="148.46264" xlink:href="#m637db1ecd0" y="210.1824"/>
      </g>
     </g>
     <g id="line2d_32">
      <g>
       <use style="fill-opacity:0;stroke:#000000;stroke-width:0.4;" x="148.46264" xlink:href="#m69e7ba62c5" y="28.3392"/>
      </g>
     </g>
    </g>
    <g id="xtick_15">
     <g id="line2d_33">
      <g>
       <use style="fill-opacity:0;stroke:#000000;stroke-width:0.4;" x="155.638675" xlink:href="#m637db1ecd0" y="210.1824"/>
      </g>
     </g>
     <g id="line2d_34">
      <g>
       <use style="fill-opacity:0;stroke:#000000;stroke-width:0.4;" x="155.638675" xlink:href="#m69e7ba62c5" y="28.3392"/>
      </g>
     </g>
    </g>
    <g id="xtick_16">
     <g id="line2d_35">
      <g>
       <use style="fill-opacity:0;stroke:#000000;stroke-width:0.4;" x="161.501923" xlink:href="#m637db1ecd0" y="210.1824"/>
      </g>
     </g>
     <g id="line2d_36">
      <g>
       <use style="fill-opacity:0;stroke:#000000;stroke-width:0.4;" x="161.501923" xlink:href="#m69e7ba62c5" y="28.3392"/>
      </g>
     </g>
    </g>
    <g id="xtick_17">
     <g id="line2d_37">
      <g>
       <use style="fill-opacity:0;stroke:#000000;stroke-width:0.4;" x="166.459229" xlink:href="#m637db1ecd0" y="210.1824"/>
      </g>
     </g>
     <g id="line2d_38">
      <g>
       <use style="fill-opacity:0;stroke:#000000;stroke-width:0.4;" x="166.459229" xlink:href="#m69e7ba62c5" y="28.3392"/>
      </g>
     </g>
    </g>
    <g id="xtick_18">
     <g id="line2d_39">
      <g>
       <use style="fill-opacity:0;stroke:#000000;stroke-width:0.4;" x="170.753442" xlink:href="#m637db1ecd0" y="210.1824"/>
      </g>
     </g>
     <g id="line2d_40">
      <g>
       <use style="fill-opacity:0;stroke:#000000;stroke-width:0.4;" x="170.753442" xlink:href="#m69e7ba62c5" y="28.3392"/>
      </g>
     </g>
    </g>
    <g id="xtick_19">
     <g id="line2d_41">
      <g>
       <use style="fill-opacity:0;stroke:#000000;stroke-width:0.4;" x="174.541206" xlink:href="#m637db1ecd0" y="210.1824"/>
      </g>
     </g>
     <g id="line2d_42">
      <g>
       <use style="fill-opacity:0;stroke:#000000;stroke-width:0.4;" x="174.541206" xlink:href="#m69e7ba62c5" y="28.3392"/>
      </g>
     </g>
    </g>
    <g id="xtick_20">
     <g id="line2d_43">
      <g>
       <use style="fill-opacity:0;stroke:#000000;stroke-width:0.4;" x="200.220279" xlink:href="#m637db1ecd0" y="210.1824"/>
      </g>
     </g>
     <g id="line2d_44">
      <g>
       <use style="fill-opacity:0;stroke:#000000;stroke-width:0.4;" x="200.220279" xlink:href="#m69e7ba62c5" y="28.3392"/>
      </g>
     </g>
    </g>
    <g id="xtick_21">
     <g id="line2d_45">
      <g>
       <use style="fill-opacity:0;stroke:#000000;stroke-width:0.4;" x="213.259563" xlink:href="#m637db1ecd0" y="210.1824"/>
      </g>
     </g>
     <g id="line2d_46">
      <g>
       <use style="fill-opacity:0;stroke:#000000;stroke-width:0.4;" x="213.259563" xlink:href="#m69e7ba62c5" y="28.3392"/>
      </g>
     </g>
    </g>
    <g id="xtick_22">
     <g id="line2d_47">
      <g>
       <use style="fill-opacity:0;stroke:#000000;stroke-width:0.4;" x="222.511081" xlink:href="#m637db1ecd0" y="210.1824"/>
      </g>
     </g>
     <g id="line2d_48">
      <g>
       <use style="fill-opacity:0;stroke:#000000;stroke-width:0.4;" x="222.511081" xlink:href="#m69e7ba62c5" y="28.3392"/>
      </g>
     </g>
    </g>
    <g id="xtick_23">
     <g id="line2d_49">
      <g>
       <use style="fill-opacity:0;stroke:#000000;stroke-width:0.4;" x="229.687117" xlink:href="#m637db1ecd0" y="210.1824"/>
      </g>
     </g>
     <g id="line2d_50">
      <g>
       <use style="fill-opacity:0;stroke:#000000;stroke-width:0.4;" x="229.687117" xlink:href="#m69e7ba62c5" y="28.3392"/>
      </g>
     </g>
    </g>
    <g id="xtick_24">
     <g id="line2d_51">
      <g>
       <use style="fill-opacity:0;stroke:#000000;stroke-width:0.4;" x="235.550365" xlink:href="#m637db1ecd0" y="210.1824"/>
      </g>
     </g>
     <g id="line2d_52">
      <g>
       <use style="fill-opacity:0;stroke:#000000;stroke-width:0.4;" x="235.550365" xlink:href="#m69e7ba62c5" y="28.3392"/>
      </g>
     </g>
    </g>
    <g id="xtick_25">
     <g id="line2d_53">
      <g>
       <use style="fill-opacity:0;stroke:#000000;stroke-width:0.4;" x="240.50767" xlink:href="#m637db1ecd0" y="210.1824"/>
      </g>
     </g>
     <g id="line2d_54">
      <g>
       <use style="fill-opacity:0;stroke:#000000;stroke-width:0.4;" x="240.50767" xlink:href="#m69e7ba62c5" y="28.3392"/>
      </g>
     </g>
    </g>
    <g id="xtick_26">
     <g id="line2d_55">
      <g>
       <use style="fill-opacity:0;stroke:#000000;stroke-width:0.4;" x="244.801883" xlink:href="#m637db1ecd0" y="210.1824"/>
      </g>
     </g>
     <g id="line2d_56">
      <g>
       <use style="fill-opacity:0;stroke:#000000;stroke-width:0.4;" x="244.801883" xlink:href="#m69e7ba62c5" y="28.3392"/>
      </g>
     </g>
    </g>
    <g id="xtick_27">
     <g id="line2d_57">
      <g>
       <use style="fill-opacity:0;stroke:#000000;stroke-width:0.4;" x="248.589648" xlink:href="#m637db1ecd0" y="210.1824"/>
      </g>
     </g>
     <g id="line2d_58">
      <g>
       <use style="fill-opacity:0;stroke:#000000;stroke-width:0.4;" x="248.589648" xlink:href="#m69e7ba62c5" y="28.3392"/>
      </g>
     </g>
    </g>
    <g id="xtick_28">
     <g id="line2d_59">
      <g>
       <use style="fill-opacity:0;stroke:#000000;stroke-width:0.4;" x="274.268721" xlink:href="#m637db1ecd0" y="210.1824"/>
      </g>
     </g>
     <g id="line2d_60">
      <g>
       <use style="fill-opacity:0;stroke:#000000;stroke-width:0.4;" x="274.268721" xlink:href="#m69e7ba62c5" y="28.3392"/>
      </g>
     </g>
    </g>
    <g id="xtick_29">
     <g id="line2d_61">
      <g>
       <use style="fill-opacity:0;stroke:#000000;stroke-width:0.4;" x="287.308004" xlink:href="#m637db1ecd0" y="210.1824"/>
      </g>
     </g>
     <g id="line2d_62">
      <g>
       <use style="fill-opacity:0;stroke:#000000;stroke-width:0.4;" x="287.308004" xlink:href="#m69e7ba62c5" y="28.3392"/>
      </g>
     </g>
    </g>
    <g id="xtick_30">
     <g id="line2d_63">
      <g>
       <use style="fill-opacity:0;stroke:#000000;stroke-width:0.4;" x="296.559523" xlink:href="#m637db1ecd0" y="210.1824"/>
      </g>
     </g>
     <g id="line2d_64">
      <g>
       <use style="fill-opacity:0;stroke:#000000;stroke-width:0.4;" x="296.559523" xlink:href="#m69e7ba62c5" y="28.3392"/>
      </g>
     </g>
    </g>
    <g id="xtick_31">
     <g id="line2d_65">
      <g>
       <use style="fill-opacity:0;stroke:#000000;stroke-width:0.4;" x="303.735558" xlink:href="#m637db1ecd0" y="210.1824"/>
      </g>
     </g>
     <g id="line2d_66">
      <g>
       <use style="fill-opacity:0;stroke:#000000;stroke-width:0.4;" x="303.735558" xlink:href="#m69e7ba62c5" y="28.3392"/>
      </g>
     </g>
    </g>
    <g id="xtick_32">
     <g id="line2d_67">
      <g>
       <use style="fill-opacity:0;stroke:#000000;stroke-width:0.4;" x="309.598806" xlink:href="#m637db1ecd0" y="210.1824"/>
      </g>
     </g>
     <g id="line2d_68">
      <g>
       <use style="fill-opacity:0;stroke:#000000;stroke-width:0.4;" x="309.598806" xlink:href="#m69e7ba62c5" y="28.3392"/>
      </g>
     </g>
    </g>
    <g id="xtick_33">
     <g id="line2d_69">
      <g>
       <use style="fill-opacity:0;stroke:#000000;stroke-width:0.4;" x="314.556112" xlink:href="#m637db1ecd0" y="210.1824"/>
      </g>
     </g>
     <g id="line2d_70">
      <g>
       <use style="fill-opacity:0;stroke:#000000;stroke-width:0.4;" x="314.556112" xlink:href="#m69e7ba62c5" y="28.3392"/>
      </g>
     </g>
    </g>
    <g id="xtick_34">
     <g id="line2d_71">
      <g>
       <use style="fill-opacity:0;stroke:#000000;stroke-width:0.4;" x="318.850325" xlink:href="#m637db1ecd0" y="210.1824"/>
      </g>
     </g>
     <g id="line2d_72">
      <g>
       <use style="fill-opacity:0;stroke:#000000;stroke-width:0.4;" x="318.850325" xlink:href="#m69e7ba62c5" y="28.3392"/>
      </g>
     </g>
    </g>
    <g id="xtick_35">
     <g id="line2d_73">
      <g>
       <use style="fill-opacity:0;stroke:#000000;stroke-width:0.4;" x="322.63809" xlink:href="#m637db1ecd0" y="210.1824"/>
      </g>
     </g>
     <g id="line2d_74">
      <g>
       <use style="fill-opacity:0;stroke:#000000;stroke-width:0.4;" x="322.63809" xlink:href="#m69e7ba62c5" y="28.3392"/>
      </g>
     </g>
    </g>
    <g id="xtick_36">
     <g id="line2d_75">
      <g>
       <use style="fill-opacity:0;stroke:#000000;stroke-width:0.4;" x="348.317163" xlink:href="#m637db1ecd0" y="210.1824"/>
      </g>
     </g>
     <g id="line2d_76">
      <g>
       <use style="fill-opacity:0;stroke:#000000;stroke-width:0.4;" x="348.317163" xlink:href="#m69e7ba62c5" y="28.3392"/>
      </g>
     </g>
    </g>
    <g id="xtick_37">
     <g id="line2d_77">
      <g>
       <use style="fill-opacity:0;stroke:#000000;stroke-width:0.4;" x="361.356446" xlink:href="#m637db1ecd0" y="210.1824"/>
      </g>
     </g>
     <g id="line2d_78">
      <g>
       <use style="fill-opacity:0;stroke:#000000;stroke-width:0.4;" x="361.356446" xlink:href="#m69e7ba62c5" y="28.3392"/>
      </g>
     </g>
    </g>
    <g id="xtick_38">
     <g id="line2d_79">
      <g>
       <use style="fill-opacity:0;stroke:#000000;stroke-width:0.4;" x="370.607965" xlink:href="#m637db1ecd0" y="210.1824"/>
      </g>
     </g>
     <g id="line2d_80">
      <g>
       <use style="fill-opacity:0;stroke:#000000;stroke-width:0.4;" x="370.607965" xlink:href="#m69e7ba62c5" y="28.3392"/>
      </g>
     </g>
    </g>
    <g id="xtick_39">
     <g id="line2d_81">
      <g>
       <use style="fill-opacity:0;stroke:#000000;stroke-width:0.4;" x="377.784" xlink:href="#m637db1ecd0" y="210.1824"/>
      </g>
     </g>
     <g id="line2d_82">
      <g>
       <use style="fill-opacity:0;stroke:#000000;stroke-width:0.4;" x="377.784" xlink:href="#m69e7ba62c5" y="28.3392"/>
      </g>
     </g>
    </g>
    <g id="text_5">
     <!-- f -->
     <defs>
      <path d="M 37.109375 75.984375 
L 37.109375 68.5 
L 28.515625 68.5 
Q 23.6875 68.5 21.796875 66.546875 
Q 19.921875 64.59375 19.921875 59.515625 
L 19.921875 54.6875 
L 34.71875 54.6875 
L 34.71875 47.703125 
L 19.921875 47.703125 
L 19.921875 0 
L 10.890625 0 
L 10.890625 47.703125 
L 2.296875 47.703125 
L 2.296875 54.6875 
L 10.890625 54.6875 
L 10.890625 58.5 
Q 10.890625 67.625 15.140625 71.796875 
Q 19.390625 75.984375 28.609375 75.984375 
z
" id="DejaVuSans-102"/>
     </defs>
     <g transform="translate(213.366844 233.023337)scale(0.1 -0.1)">
      <use xlink:href="#DejaVuSans-102"/>
     </g>
    </g>
   </g>
   <g id="matplotlib.axis_2">
    <g id="ytick_1">
     <g id="line2d_83">
      <path clip-path="url(#pfdbc5220c2)" d="M 52.47 210.1824 
L 377.784 210.1824 
" style="fill:none;stroke:#808080;stroke-dasharray:0.7,1.155;stroke-dashoffset:0;stroke-opacity:0.8;stroke-width:0.7;"/>
     </g>
     <g id="line2d_84">
      <defs>
       <path d="M 0 0 
L 3.5 0 
" id="ma6465ac7a0" style="stroke:#000000;stroke-width:0.8;"/>
      </defs>
      <g>
       <use style="fill-opacity:0;stroke:#000000;stroke-width:0.8;" x="52.47" xlink:href="#ma6465ac7a0" y="210.1824"/>
      </g>
     </g>
     <g id="line2d_85">
      <defs>
       <path d="M 0 0 
L -3.5 0 
" id="m5000154e7a" style="stroke:#000000;stroke-width:0.8;"/>
      </defs>
      <g>
       <use style="fill-opacity:0;stroke:#000000;stroke-width:0.8;" x="377.784" xlink:href="#m5000154e7a" y="210.1824"/>
      </g>
     </g>
     <g id="text_6">
      <!-- $\mathdefault{10^{-3}}$ -->
      <defs>
       <path d="M 40.578125 39.3125 
Q 47.65625 37.796875 51.625 33 
Q 55.609375 28.21875 55.609375 21.1875 
Q 55.609375 10.40625 48.1875 4.484375 
Q 40.765625 -1.421875 27.09375 -1.421875 
Q 22.515625 -1.421875 17.65625 -0.515625 
Q 12.796875 0.390625 7.625 2.203125 
L 7.625 11.71875 
Q 11.71875 9.328125 16.59375 8.109375 
Q 21.484375 6.890625 26.8125 6.890625 
Q 36.078125 6.890625 40.9375 10.546875 
Q 45.796875 14.203125 45.796875 21.1875 
Q 45.796875 27.640625 41.28125 31.265625 
Q 36.765625 34.90625 28.71875 34.90625 
L 20.21875 34.90625 
L 20.21875 43.015625 
L 29.109375 43.015625 
Q 36.375 43.015625 40.234375 45.921875 
Q 44.09375 48.828125 44.09375 54.296875 
Q 44.09375 59.90625 40.109375 62.90625 
Q 36.140625 65.921875 28.71875 65.921875 
Q 24.65625 65.921875 20.015625 65.03125 
Q 15.375 64.15625 9.8125 62.3125 
L 9.8125 71.09375 
Q 15.4375 72.65625 20.34375 73.4375 
Q 25.25 74.21875 29.59375 74.21875 
Q 40.828125 74.21875 47.359375 69.109375 
Q 53.90625 64.015625 53.90625 55.328125 
Q 53.90625 49.265625 50.4375 45.09375 
Q 46.96875 40.921875 40.578125 39.3125 
z
" id="DejaVuSans-51"/>
      </defs>
      <g transform="translate(30.17 213.221775)scale(0.08 -0.08)">
       <use transform="translate(0 0.765625)" xlink:href="#DejaVuSans-49"/>
       <use transform="translate(63.623047 0.765625)" xlink:href="#DejaVuSans-48"/>
       <use transform="translate(128.203125 39.046875)scale(0.7)" xlink:href="#DejaVuSans-8722"/>
       <use transform="translate(186.855469 39.046875)scale(0.7)" xlink:href="#DejaVuSans-51"/>
      </g>
     </g>
    </g>
    <g id="ytick_2">
     <g id="line2d_86">
      <path clip-path="url(#pfdbc5220c2)" d="M 52.47 169.7728 
L 377.784 169.7728 
" style="fill:none;stroke:#808080;stroke-dasharray:0.7,1.155;stroke-dashoffset:0;stroke-opacity:0.8;stroke-width:0.7;"/>
     </g>
     <g id="line2d_87">
      <g>
       <use style="fill-opacity:0;stroke:#000000;stroke-width:0.8;" x="52.47" xlink:href="#ma6465ac7a0" y="169.7728"/>
      </g>
     </g>
     <g id="line2d_88">
      <g>
       <use style="fill-opacity:0;stroke:#000000;stroke-width:0.8;" x="377.784" xlink:href="#m5000154e7a" y="169.7728"/>
      </g>
     </g>
     <g id="text_7">
      <!-- $\mathdefault{10^{-2}}$ -->
      <g transform="translate(30.17 172.812175)scale(0.08 -0.08)">
       <use transform="translate(0 0.765625)" xlink:href="#DejaVuSans-49"/>
       <use transform="translate(63.623047 0.765625)" xlink:href="#DejaVuSans-48"/>
       <use transform="translate(128.203125 39.046875)scale(0.7)" xlink:href="#DejaVuSans-8722"/>
       <use transform="translate(186.855469 39.046875)scale(0.7)" xlink:href="#DejaVuSans-50"/>
      </g>
     </g>
    </g>
    <g id="ytick_3">
     <g id="line2d_89">
      <path clip-path="url(#pfdbc5220c2)" d="M 52.47 129.3632 
L 377.784 129.3632 
" style="fill:none;stroke:#808080;stroke-dasharray:0.7,1.155;stroke-dashoffset:0;stroke-opacity:0.8;stroke-width:0.7;"/>
     </g>
     <g id="line2d_90">
      <g>
       <use style="fill-opacity:0;stroke:#000000;stroke-width:0.8;" x="52.47" xlink:href="#ma6465ac7a0" y="129.3632"/>
      </g>
     </g>
     <g id="line2d_91">
      <g>
       <use style="fill-opacity:0;stroke:#000000;stroke-width:0.8;" x="377.784" xlink:href="#m5000154e7a" y="129.3632"/>
      </g>
     </g>
     <g id="text_8">
      <!-- $\mathdefault{10^{-1}}$ -->
      <g transform="translate(30.17 132.402575)scale(0.08 -0.08)">
       <use transform="translate(0 0.684375)" xlink:href="#DejaVuSans-49"/>
       <use transform="translate(63.623047 0.684375)" xlink:href="#DejaVuSans-48"/>
       <use transform="translate(128.203125 38.965625)scale(0.7)" xlink:href="#DejaVuSans-8722"/>
       <use transform="translate(186.855469 38.965625)scale(0.7)" xlink:href="#DejaVuSans-49"/>
      </g>
     </g>
    </g>
    <g id="ytick_4">
     <g id="line2d_92">
      <path clip-path="url(#pfdbc5220c2)" d="M 52.47 88.9536 
L 377.784 88.9536 
" style="fill:none;stroke:#808080;stroke-dasharray:0.7,1.155;stroke-dashoffset:0;stroke-opacity:0.8;stroke-width:0.7;"/>
     </g>
     <g id="line2d_93">
      <g>
       <use style="fill-opacity:0;stroke:#000000;stroke-width:0.8;" x="52.47" xlink:href="#ma6465ac7a0" y="88.9536"/>
      </g>
     </g>
     <g id="line2d_94">
      <g>
       <use style="fill-opacity:0;stroke:#000000;stroke-width:0.8;" x="377.784" xlink:href="#m5000154e7a" y="88.9536"/>
      </g>
     </g>
     <g id="text_9">
      <!-- $\mathdefault{10^{0}}$ -->
      <g transform="translate(34.89 91.992975)scale(0.08 -0.08)">
       <use transform="translate(0 0.765625)" xlink:href="#DejaVuSans-49"/>
       <use transform="translate(63.623047 0.765625)" xlink:href="#DejaVuSans-48"/>
       <use transform="translate(128.203125 39.046875)scale(0.7)" xlink:href="#DejaVuSans-48"/>
      </g>
     </g>
    </g>
    <g id="ytick_5">
     <g id="line2d_95">
      <path clip-path="url(#pfdbc5220c2)" d="M 52.47 48.544 
L 377.784 48.544 
" style="fill:none;stroke:#808080;stroke-dasharray:0.7,1.155;stroke-dashoffset:0;stroke-opacity:0.8;stroke-width:0.7;"/>
     </g>
     <g id="line2d_96">
      <g>
       <use style="fill-opacity:0;stroke:#000000;stroke-width:0.8;" x="52.47" xlink:href="#ma6465ac7a0" y="48.544"/>
      </g>
     </g>
     <g id="line2d_97">
      <g>
       <use style="fill-opacity:0;stroke:#000000;stroke-width:0.8;" x="377.784" xlink:href="#m5000154e7a" y="48.544"/>
      </g>
     </g>
     <g id="text_10">
      <!-- $\mathdefault{10^{1}}$ -->
      <g transform="translate(34.89 51.583375)scale(0.08 -0.08)">
       <use transform="translate(0 0.684375)" xlink:href="#DejaVuSans-49"/>
       <use transform="translate(63.623047 0.684375)" xlink:href="#DejaVuSans-48"/>
       <use transform="translate(128.203125 38.965625)scale(0.7)" xlink:href="#DejaVuSans-49"/>
      </g>
     </g>
    </g>
    <g id="ytick_6">
     <g id="line2d_98">
      <defs>
       <path d="M 0 0 
L 2 0 
" id="md4e31962ab" style="stroke:#000000;stroke-width:0.4;"/>
      </defs>
      <g>
       <use style="fill-opacity:0;stroke:#000000;stroke-width:0.4;" x="52.47" xlink:href="#md4e31962ab" y="198.017898"/>
      </g>
     </g>
     <g id="line2d_99">
      <defs>
       <path d="M 0 0 
L -2 0 
" id="m4bd24e70f8" style="stroke:#000000;stroke-width:0.4;"/>
      </defs>
      <g>
       <use style="fill-opacity:0;stroke:#000000;stroke-width:0.4;" x="377.784" xlink:href="#m4bd24e70f8" y="198.017898"/>
      </g>
     </g>
    </g>
    <g id="ytick_7">
     <g id="line2d_100">
      <g>
       <use style="fill-opacity:0;stroke:#000000;stroke-width:0.4;" x="52.47" xlink:href="#md4e31962ab" y="190.902121"/>
      </g>
     </g>
     <g id="line2d_101">
      <g>
       <use style="fill-opacity:0;stroke:#000000;stroke-width:0.4;" x="377.784" xlink:href="#m4bd24e70f8" y="190.902121"/>
      </g>
     </g>
    </g>
    <g id="ytick_8">
     <g id="line2d_102">
      <g>
       <use style="fill-opacity:0;stroke:#000000;stroke-width:0.4;" x="52.47" xlink:href="#md4e31962ab" y="185.853397"/>
      </g>
     </g>
     <g id="line2d_103">
      <g>
       <use style="fill-opacity:0;stroke:#000000;stroke-width:0.4;" x="377.784" xlink:href="#m4bd24e70f8" y="185.853397"/>
      </g>
     </g>
    </g>
    <g id="ytick_9">
     <g id="line2d_104">
      <g>
       <use style="fill-opacity:0;stroke:#000000;stroke-width:0.4;" x="52.47" xlink:href="#md4e31962ab" y="181.937302"/>
      </g>
     </g>
     <g id="line2d_105">
      <g>
       <use style="fill-opacity:0;stroke:#000000;stroke-width:0.4;" x="377.784" xlink:href="#m4bd24e70f8" y="181.937302"/>
      </g>
     </g>
    </g>
    <g id="ytick_10">
     <g id="line2d_106">
      <g>
       <use style="fill-opacity:0;stroke:#000000;stroke-width:0.4;" x="52.47" xlink:href="#md4e31962ab" y="178.737619"/>
      </g>
     </g>
     <g id="line2d_107">
      <g>
       <use style="fill-opacity:0;stroke:#000000;stroke-width:0.4;" x="377.784" xlink:href="#m4bd24e70f8" y="178.737619"/>
      </g>
     </g>
    </g>
    <g id="ytick_11">
     <g id="line2d_108">
      <g>
       <use style="fill-opacity:0;stroke:#000000;stroke-width:0.4;" x="52.47" xlink:href="#md4e31962ab" y="176.032326"/>
      </g>
     </g>
     <g id="line2d_109">
      <g>
       <use style="fill-opacity:0;stroke:#000000;stroke-width:0.4;" x="377.784" xlink:href="#m4bd24e70f8" y="176.032326"/>
      </g>
     </g>
    </g>
    <g id="ytick_12">
     <g id="line2d_110">
      <g>
       <use style="fill-opacity:0;stroke:#000000;stroke-width:0.4;" x="52.47" xlink:href="#md4e31962ab" y="173.688895"/>
      </g>
     </g>
     <g id="line2d_111">
      <g>
       <use style="fill-opacity:0;stroke:#000000;stroke-width:0.4;" x="377.784" xlink:href="#m4bd24e70f8" y="173.688895"/>
      </g>
     </g>
    </g>
    <g id="ytick_13">
     <g id="line2d_112">
      <g>
       <use style="fill-opacity:0;stroke:#000000;stroke-width:0.4;" x="52.47" xlink:href="#md4e31962ab" y="171.621842"/>
      </g>
     </g>
     <g id="line2d_113">
      <g>
       <use style="fill-opacity:0;stroke:#000000;stroke-width:0.4;" x="377.784" xlink:href="#m4bd24e70f8" y="171.621842"/>
      </g>
     </g>
    </g>
    <g id="ytick_14">
     <g id="line2d_114">
      <g>
       <use style="fill-opacity:0;stroke:#000000;stroke-width:0.4;" x="52.47" xlink:href="#md4e31962ab" y="157.608298"/>
      </g>
     </g>
     <g id="line2d_115">
      <g>
       <use style="fill-opacity:0;stroke:#000000;stroke-width:0.4;" x="377.784" xlink:href="#m4bd24e70f8" y="157.608298"/>
      </g>
     </g>
    </g>
    <g id="ytick_15">
     <g id="line2d_116">
      <g>
       <use style="fill-opacity:0;stroke:#000000;stroke-width:0.4;" x="52.47" xlink:href="#md4e31962ab" y="150.492521"/>
      </g>
     </g>
     <g id="line2d_117">
      <g>
       <use style="fill-opacity:0;stroke:#000000;stroke-width:0.4;" x="377.784" xlink:href="#m4bd24e70f8" y="150.492521"/>
      </g>
     </g>
    </g>
    <g id="ytick_16">
     <g id="line2d_118">
      <g>
       <use style="fill-opacity:0;stroke:#000000;stroke-width:0.4;" x="52.47" xlink:href="#md4e31962ab" y="145.443797"/>
      </g>
     </g>
     <g id="line2d_119">
      <g>
       <use style="fill-opacity:0;stroke:#000000;stroke-width:0.4;" x="377.784" xlink:href="#m4bd24e70f8" y="145.443797"/>
      </g>
     </g>
    </g>
    <g id="ytick_17">
     <g id="line2d_120">
      <g>
       <use style="fill-opacity:0;stroke:#000000;stroke-width:0.4;" x="52.47" xlink:href="#md4e31962ab" y="141.527702"/>
      </g>
     </g>
     <g id="line2d_121">
      <g>
       <use style="fill-opacity:0;stroke:#000000;stroke-width:0.4;" x="377.784" xlink:href="#m4bd24e70f8" y="141.527702"/>
      </g>
     </g>
    </g>
    <g id="ytick_18">
     <g id="line2d_122">
      <g>
       <use style="fill-opacity:0;stroke:#000000;stroke-width:0.4;" x="52.47" xlink:href="#md4e31962ab" y="138.328019"/>
      </g>
     </g>
     <g id="line2d_123">
      <g>
       <use style="fill-opacity:0;stroke:#000000;stroke-width:0.4;" x="377.784" xlink:href="#m4bd24e70f8" y="138.328019"/>
      </g>
     </g>
    </g>
    <g id="ytick_19">
     <g id="line2d_124">
      <g>
       <use style="fill-opacity:0;stroke:#000000;stroke-width:0.4;" x="52.47" xlink:href="#md4e31962ab" y="135.622726"/>
      </g>
     </g>
     <g id="line2d_125">
      <g>
       <use style="fill-opacity:0;stroke:#000000;stroke-width:0.4;" x="377.784" xlink:href="#m4bd24e70f8" y="135.622726"/>
      </g>
     </g>
    </g>
    <g id="ytick_20">
     <g id="line2d_126">
      <g>
       <use style="fill-opacity:0;stroke:#000000;stroke-width:0.4;" x="52.47" xlink:href="#md4e31962ab" y="133.279295"/>
      </g>
     </g>
     <g id="line2d_127">
      <g>
       <use style="fill-opacity:0;stroke:#000000;stroke-width:0.4;" x="377.784" xlink:href="#m4bd24e70f8" y="133.279295"/>
      </g>
     </g>
    </g>
    <g id="ytick_21">
     <g id="line2d_128">
      <g>
       <use style="fill-opacity:0;stroke:#000000;stroke-width:0.4;" x="52.47" xlink:href="#md4e31962ab" y="131.212242"/>
      </g>
     </g>
     <g id="line2d_129">
      <g>
       <use style="fill-opacity:0;stroke:#000000;stroke-width:0.4;" x="377.784" xlink:href="#m4bd24e70f8" y="131.212242"/>
      </g>
     </g>
    </g>
    <g id="ytick_22">
     <g id="line2d_130">
      <g>
       <use style="fill-opacity:0;stroke:#000000;stroke-width:0.4;" x="52.47" xlink:href="#md4e31962ab" y="117.198698"/>
      </g>
     </g>
     <g id="line2d_131">
      <g>
       <use style="fill-opacity:0;stroke:#000000;stroke-width:0.4;" x="377.784" xlink:href="#m4bd24e70f8" y="117.198698"/>
      </g>
     </g>
    </g>
    <g id="ytick_23">
     <g id="line2d_132">
      <g>
       <use style="fill-opacity:0;stroke:#000000;stroke-width:0.4;" x="52.47" xlink:href="#md4e31962ab" y="110.082921"/>
      </g>
     </g>
     <g id="line2d_133">
      <g>
       <use style="fill-opacity:0;stroke:#000000;stroke-width:0.4;" x="377.784" xlink:href="#m4bd24e70f8" y="110.082921"/>
      </g>
     </g>
    </g>
    <g id="ytick_24">
     <g id="line2d_134">
      <g>
       <use style="fill-opacity:0;stroke:#000000;stroke-width:0.4;" x="52.47" xlink:href="#md4e31962ab" y="105.034197"/>
      </g>
     </g>
     <g id="line2d_135">
      <g>
       <use style="fill-opacity:0;stroke:#000000;stroke-width:0.4;" x="377.784" xlink:href="#m4bd24e70f8" y="105.034197"/>
      </g>
     </g>
    </g>
    <g id="ytick_25">
     <g id="line2d_136">
      <g>
       <use style="fill-opacity:0;stroke:#000000;stroke-width:0.4;" x="52.47" xlink:href="#md4e31962ab" y="101.118102"/>
      </g>
     </g>
     <g id="line2d_137">
      <g>
       <use style="fill-opacity:0;stroke:#000000;stroke-width:0.4;" x="377.784" xlink:href="#m4bd24e70f8" y="101.118102"/>
      </g>
     </g>
    </g>
    <g id="ytick_26">
     <g id="line2d_138">
      <g>
       <use style="fill-opacity:0;stroke:#000000;stroke-width:0.4;" x="52.47" xlink:href="#md4e31962ab" y="97.918419"/>
      </g>
     </g>
     <g id="line2d_139">
      <g>
       <use style="fill-opacity:0;stroke:#000000;stroke-width:0.4;" x="377.784" xlink:href="#m4bd24e70f8" y="97.918419"/>
      </g>
     </g>
    </g>
    <g id="ytick_27">
     <g id="line2d_140">
      <g>
       <use style="fill-opacity:0;stroke:#000000;stroke-width:0.4;" x="52.47" xlink:href="#md4e31962ab" y="95.213126"/>
      </g>
     </g>
     <g id="line2d_141">
      <g>
       <use style="fill-opacity:0;stroke:#000000;stroke-width:0.4;" x="377.784" xlink:href="#m4bd24e70f8" y="95.213126"/>
      </g>
     </g>
    </g>
    <g id="ytick_28">
     <g id="line2d_142">
      <g>
       <use style="fill-opacity:0;stroke:#000000;stroke-width:0.4;" x="52.47" xlink:href="#md4e31962ab" y="92.869695"/>
      </g>
     </g>
     <g id="line2d_143">
      <g>
       <use style="fill-opacity:0;stroke:#000000;stroke-width:0.4;" x="377.784" xlink:href="#m4bd24e70f8" y="92.869695"/>
      </g>
     </g>
    </g>
    <g id="ytick_29">
     <g id="line2d_144">
      <g>
       <use style="fill-opacity:0;stroke:#000000;stroke-width:0.4;" x="52.47" xlink:href="#md4e31962ab" y="90.802642"/>
      </g>
     </g>
     <g id="line2d_145">
      <g>
       <use style="fill-opacity:0;stroke:#000000;stroke-width:0.4;" x="377.784" xlink:href="#m4bd24e70f8" y="90.802642"/>
      </g>
     </g>
    </g>
    <g id="ytick_30">
     <g id="line2d_146">
      <g>
       <use style="fill-opacity:0;stroke:#000000;stroke-width:0.4;" x="52.47" xlink:href="#md4e31962ab" y="76.789098"/>
      </g>
     </g>
     <g id="line2d_147">
      <g>
       <use style="fill-opacity:0;stroke:#000000;stroke-width:0.4;" x="377.784" xlink:href="#m4bd24e70f8" y="76.789098"/>
      </g>
     </g>
    </g>
    <g id="ytick_31">
     <g id="line2d_148">
      <g>
       <use style="fill-opacity:0;stroke:#000000;stroke-width:0.4;" x="52.47" xlink:href="#md4e31962ab" y="69.673321"/>
      </g>
     </g>
     <g id="line2d_149">
      <g>
       <use style="fill-opacity:0;stroke:#000000;stroke-width:0.4;" x="377.784" xlink:href="#m4bd24e70f8" y="69.673321"/>
      </g>
     </g>
    </g>
    <g id="ytick_32">
     <g id="line2d_150">
      <g>
       <use style="fill-opacity:0;stroke:#000000;stroke-width:0.4;" x="52.47" xlink:href="#md4e31962ab" y="64.624597"/>
      </g>
     </g>
     <g id="line2d_151">
      <g>
       <use style="fill-opacity:0;stroke:#000000;stroke-width:0.4;" x="377.784" xlink:href="#m4bd24e70f8" y="64.624597"/>
      </g>
     </g>
    </g>
    <g id="ytick_33">
     <g id="line2d_152">
      <g>
       <use style="fill-opacity:0;stroke:#000000;stroke-width:0.4;" x="52.47" xlink:href="#md4e31962ab" y="60.708502"/>
      </g>
     </g>
     <g id="line2d_153">
      <g>
       <use style="fill-opacity:0;stroke:#000000;stroke-width:0.4;" x="377.784" xlink:href="#m4bd24e70f8" y="60.708502"/>
      </g>
     </g>
    </g>
    <g id="ytick_34">
     <g id="line2d_154">
      <g>
       <use style="fill-opacity:0;stroke:#000000;stroke-width:0.4;" x="52.47" xlink:href="#md4e31962ab" y="57.508819"/>
      </g>
     </g>
     <g id="line2d_155">
      <g>
       <use style="fill-opacity:0;stroke:#000000;stroke-width:0.4;" x="377.784" xlink:href="#m4bd24e70f8" y="57.508819"/>
      </g>
     </g>
    </g>
    <g id="ytick_35">
     <g id="line2d_156">
      <g>
       <use style="fill-opacity:0;stroke:#000000;stroke-width:0.4;" x="52.47" xlink:href="#md4e31962ab" y="54.803526"/>
      </g>
     </g>
     <g id="line2d_157">
      <g>
       <use style="fill-opacity:0;stroke:#000000;stroke-width:0.4;" x="377.784" xlink:href="#m4bd24e70f8" y="54.803526"/>
      </g>
     </g>
    </g>
    <g id="ytick_36">
     <g id="line2d_158">
      <g>
       <use style="fill-opacity:0;stroke:#000000;stroke-width:0.4;" x="52.47" xlink:href="#md4e31962ab" y="52.460095"/>
      </g>
     </g>
     <g id="line2d_159">
      <g>
       <use style="fill-opacity:0;stroke:#000000;stroke-width:0.4;" x="377.784" xlink:href="#m4bd24e70f8" y="52.460095"/>
      </g>
     </g>
    </g>
    <g id="ytick_37">
     <g id="line2d_160">
      <g>
       <use style="fill-opacity:0;stroke:#000000;stroke-width:0.4;" x="52.47" xlink:href="#md4e31962ab" y="50.393042"/>
      </g>
     </g>
     <g id="line2d_161">
      <g>
       <use style="fill-opacity:0;stroke:#000000;stroke-width:0.4;" x="377.784" xlink:href="#m4bd24e70f8" y="50.393042"/>
      </g>
     </g>
    </g>
    <g id="ytick_38">
     <g id="line2d_162">
      <g>
       <use style="fill-opacity:0;stroke:#000000;stroke-width:0.4;" x="52.47" xlink:href="#md4e31962ab" y="36.379498"/>
      </g>
     </g>
     <g id="line2d_163">
      <g>
       <use style="fill-opacity:0;stroke:#000000;stroke-width:0.4;" x="377.784" xlink:href="#m4bd24e70f8" y="36.379498"/>
      </g>
     </g>
    </g>
    <g id="ytick_39">
     <g id="line2d_164">
      <g>
       <use style="fill-opacity:0;stroke:#000000;stroke-width:0.4;" x="52.47" xlink:href="#md4e31962ab" y="29.263721"/>
      </g>
     </g>
     <g id="line2d_165">
      <g>
       <use style="fill-opacity:0;stroke:#000000;stroke-width:0.4;" x="377.784" xlink:href="#m4bd24e70f8" y="29.263721"/>
      </g>
     </g>
    </g>
    <g id="text_11">
     <!-- PSD  -->
     <defs>
      <path d="M 19.671875 64.796875 
L 19.671875 37.40625 
L 32.078125 37.40625 
Q 38.96875 37.40625 42.71875 40.96875 
Q 46.484375 44.53125 46.484375 51.125 
Q 46.484375 57.671875 42.71875 61.234375 
Q 38.96875 64.796875 32.078125 64.796875 
z
M 9.8125 72.90625 
L 32.078125 72.90625 
Q 44.34375 72.90625 50.609375 67.359375 
Q 56.890625 61.8125 56.890625 51.125 
Q 56.890625 40.328125 50.609375 34.8125 
Q 44.34375 29.296875 32.078125 29.296875 
L 19.671875 29.296875 
L 19.671875 0 
L 9.8125 0 
z
" id="DejaVuSans-80"/>
      <path d="M 53.515625 70.515625 
L 53.515625 60.890625 
Q 47.90625 63.578125 42.921875 64.890625 
Q 37.9375 66.21875 33.296875 66.21875 
Q 25.25 66.21875 20.875 63.09375 
Q 16.5 59.96875 16.5 54.203125 
Q 16.5 49.359375 19.40625 46.890625 
Q 22.3125 44.4375 30.421875 42.921875 
L 36.375 41.703125 
Q 47.40625 39.59375 52.65625 34.296875 
Q 57.90625 29 57.90625 20.125 
Q 57.90625 9.515625 50.796875 4.046875 
Q 43.703125 -1.421875 29.984375 -1.421875 
Q 24.8125 -1.421875 18.96875 -0.25 
Q 13.140625 0.921875 6.890625 3.21875 
L 6.890625 13.375 
Q 12.890625 10.015625 18.65625 8.296875 
Q 24.421875 6.59375 29.984375 6.59375 
Q 38.421875 6.59375 43.015625 9.90625 
Q 47.609375 13.234375 47.609375 19.390625 
Q 47.609375 24.75 44.3125 27.78125 
Q 41.015625 30.8125 33.5 32.328125 
L 27.484375 33.5 
Q 16.453125 35.6875 11.515625 40.375 
Q 6.59375 45.0625 6.59375 53.421875 
Q 6.59375 63.09375 13.40625 68.65625 
Q 20.21875 74.21875 32.171875 74.21875 
Q 37.3125 74.21875 42.625 73.28125 
Q 47.953125 72.359375 53.515625 70.515625 
z
" id="DejaVuSans-83"/>
      <path d="M 19.671875 64.796875 
L 19.671875 8.109375 
L 31.59375 8.109375 
Q 46.6875 8.109375 53.6875 14.9375 
Q 60.6875 21.78125 60.6875 36.53125 
Q 60.6875 51.171875 53.6875 57.984375 
Q 46.6875 64.796875 31.59375 64.796875 
z
M 9.8125 72.90625 
L 30.078125 72.90625 
Q 51.265625 72.90625 61.171875 64.09375 
Q 71.09375 55.28125 71.09375 36.53125 
Q 71.09375 17.671875 61.125 8.828125 
Q 51.171875 0 30.078125 0 
L 9.8125 0 
z
" id="DejaVuSans-68"/>
      <path id="DejaVuSans-32"/>
     </defs>
     <g transform="translate(24.090312 130.888925)rotate(-90)scale(0.1 -0.1)">
      <use xlink:href="#DejaVuSans-80"/>
      <use x="60.302734" xlink:href="#DejaVuSans-83"/>
      <use x="123.779297" xlink:href="#DejaVuSans-68"/>
      <use x="200.78125" xlink:href="#DejaVuSans-32"/>
     </g>
    </g>
   </g>
   <g id="line2d_166">
    <path clip-path="url(#pfdbc5220c2)" d="M 21.345899 237.16 
L 52.47 220.184426 
L 74.760802 210.924247 
L 87.800085 206.011669 
L 97.051604 202.985455 
L 104.22764 204.061187 
L 110.090887 206.566107 
L 115.048193 212.873762 
L 119.342406 216.407488 
L 123.130171 221.317697 
L 126.45289 237.16 
M 138.640999 237.16 
L 139.557725 229.120396 
L 141.633208 216.111931 
L 143.582825 215.040099 
L 145.420973 210.011066 
L 147.159711 213.801698 
L 148.809244 213.025569 
L 150.378278 222.496164 
L 151.874307 224.250675 
L 154.672491 231.90115 
L 155.985279 229.595448 
L 157.246571 223.297408 
L 158.460256 218.423977 
L 159.629797 217.99046 
L 160.758293 210.644069 
L 161.848527 206.148504 
L 162.903009 207.937323 
L 163.92401 204.639278 
L 164.913591 207.164527 
L 165.873627 206.749385 
L 166.805832 209.989869 
L 167.711775 214.913357 
L 168.592894 201.702161 
L 169.450513 207.554238 
L 170.285855 201.227188 
L 171.100046 200.999345 
L 171.894131 194.160893 
L 172.66908 198.605771 
L 173.425793 196.673531 
L 174.88781 188.318587 
L 175.594626 192.671794 
L 176.286241 188.414164 
L 176.963294 185.077426 
L 177.626386 174.076052 
L 178.276081 182.409411 
L 178.91291 179.555426 
L 179.537373 174.224903 
L 180.149941 165.246311 
L 180.751058 172.294163 
L 181.341145 164.650906 
L 181.920599 164.615684 
L 183.598832 226.637407 
L 184.139329 157.724555 
L 185.193811 107.957831 
L 185.708364 32.972018 
L 186.214812 78.508099 
L 187.204393 112.702095 
L 187.687993 121.571336 
L 188.164429 122.168993 
L 188.633909 115.94896 
L 189.096634 68.07819 
L 189.552796 146.023844 
L 190.002577 148.297023 
L 190.446154 172.248111 
L 190.883696 159.141693 
L 191.315364 153.019723 
L 191.741315 145.302933 
L 192.161698 125.516608 
L 192.986329 189.167817 
L 193.390848 189.44779 
L 193.790341 201.801917 
L 194.184933 190.990719 
L 194.959882 175.707388 
L 195.340465 179.345697 
L 195.716596 181.540897 
L 196.088378 185.30209 
L 196.455912 194.165587 
L 196.819292 189.450931 
L 197.178612 190.043527 
L 197.533962 191.328869 
L 197.885428 196.409141 
L 198.233095 195.609001 
L 198.577043 198.368376 
L 198.917351 202.731216 
L 199.254096 198.320386 
L 199.587351 209.608592 
L 199.917188 200.079847 
L 200.243676 204.111684 
L 200.566883 201.036892 
L 200.886874 204.164157 
L 201.51746 200.660829 
L 201.828175 206.597955 
L 202.135918 203.372331 
L 202.440743 204.262938 
L 202.742706 208.557735 
L 203.04186 208.96247 
L 203.338257 217.010439 
L 203.631947 216.303418 
L 203.922979 205.357897 
L 204.211401 214.830722 
L 204.497259 211.187171 
L 204.780599 205.497513 
L 205.061464 215.051329 
L 205.339897 213.900123 
L 205.61594 210.258275 
L 205.889634 215.202841 
L 206.161018 223.878719 
L 206.430131 200.972074 
L 206.697011 215.976506 
L 206.961694 223.198181 
L 207.224217 213.207824 
L 207.484613 211.285735 
L 207.742919 206.593635 
L 207.999166 176.335421 
L 208.236927 237.16 
M 208.705366 237.16 
L 208.755879 225.882987 
L 209.004211 218.687102 
L 209.495195 219.589432 
L 209.737904 193.673693 
L 209.978795 216.980056 
L 210.217896 218.91205 
L 210.455231 231.329263 
L 210.731522 237.16 
M 211.02376 237.16 
L 211.156906 227.822534 
L 211.387436 233.626971 
L 211.843598 219.561547 
L 212.069275 225.953269 
L 212.293379 220.05575 
L 212.515932 231.585464 
L 212.736956 228.668855 
L 212.956471 236.721376 
L 213.174498 222.784795 
L 213.391056 232.681759 
L 213.606166 217.392672 
L 213.819847 232.773788 
L 214.032117 225.687899 
L 214.209389 237.16 
M 214.406768 237.16 
L 214.4525 236.55268 
L 214.660649 236.716369 
L 214.704304 237.16 
M 214.911459 237.16 
L 215.072947 231.074898 
L 215.277131 232.987119 
L 215.480026 231.125951 
L 215.68165 217.291955 
L 215.882017 231.493284 
L 216.081143 226.446092 
L 216.279045 233.002118 
L 216.475735 230.501401 
L 216.67123 223.772216 
L 216.761214 237.16 
M 217.103414 237.16 
L 217.250684 229.652887 
L 217.441538 227.71184 
L 217.541419 237.16 
M 217.73741 237.16 
L 217.819882 230.556383 
L 218.007398 225.614835 
L 218.193826 228.608456 
L 218.323037 237.16 
M 218.584496 237.16 
L 218.746714 224.867916 
L 218.928917 227.645329 
L 219.158932 237.16 
M 219.950576 237.16 
L 220.000977 224.382035 
L 220.17623 228.76288 
L 220.311802 237.16 
M 220.403595 237.16 
L 220.523897 231.721214 
L 220.69633 233.585695 
L 220.742274 237.16 
M 220.95148 237.16 
L 221.208153 218.901075 
L 221.507495 237.16 
M 221.578448 237.16 
L 221.711957 233.707398 
L 221.736944 237.16 
M 222.301382 237.16 
L 222.371648 218.173333 
L 222.612402 237.16 
M 222.963062 237.16 
L 223.018079 228.800976 
L 223.177676 230.953262 
L 223.20047 237.16 
M 223.47705 237.16 
L 223.494515 232.558349 
L 223.624636 237.16 
M 223.690006 237.16 
L 223.808262 234.192128 
L 223.943001 237.16 
M 223.978118 237.16 
L 224.118977 232.547697 
L 224.144502 237.16 
M 224.489026 237.16 
L 224.579494 232.934411 
L 224.637663 237.16 
M 225.511886 237.16 
L 225.629059 227.332901 
L 225.792655 237.16 
M 226.640678 237.16 
L 226.64545 236.87921 
L 226.788061 235.963896 
L 226.809117 237.16 
M 227.047311 237.16 
L 227.071401 235.748818 
L 227.096847 237.16 
M 228.441239 237.16 
L 228.45182 235.689575 
L 228.525755 237.16 
M 229.365629 237.16 
L 229.515019 226.1155 
L 229.594549 237.16 
M 230.331844 237.16 
L 230.41733 232.388753 
L 230.53239 237.16 
M 231.134579 237.16 
L 231.171087 232.669462 
L 231.198497 237.16 
M 231.777278 237.16 
L 231.785997 235.57025 
L 231.801642 237.16 
M 232.946108 237.16 
L 232.98163 230.423036 
L 233.052921 237.16 
M 233.405057 237.16 
L 233.447708 232.79734 
L 233.478413 237.16 
M 234.234817 237.16 
L 234.247436 236.692335 
L 234.257032 237.16 
M 236.844861 237.16 
L 236.847545 236.668891 
L 236.85055 237.16 
" style="fill:none;stroke:#323232;stroke-linecap:square;stroke-width:1.5;"/>
   </g>
   <g id="patch_3">
    <path d="M 52.47 210.1824 
L 52.47 28.3392 
" style="fill:none;stroke:#000000;stroke-linecap:square;stroke-linejoin:miter;stroke-width:0.8;"/>
   </g>
   <g id="patch_4">
    <path d="M 377.784 210.1824 
L 377.784 28.3392 
" style="fill:none;stroke:#000000;stroke-linecap:square;stroke-linejoin:miter;stroke-width:0.8;"/>
   </g>
   <g id="patch_5">
    <path d="M 52.47 210.1824 
L 377.784 210.1824 
" style="fill:none;stroke:#000000;stroke-linecap:square;stroke-linejoin:miter;stroke-width:0.8;"/>
   </g>
   <g id="patch_6">
    <path d="M 52.47 28.3392 
L 377.784 28.3392 
" style="fill:none;stroke:#000000;stroke-linecap:square;stroke-linejoin:miter;stroke-width:0.8;"/>
   </g>
   <g id="text_12">
    <!-- $f_{peak}0.13$ -->
    <defs>
     <path d="M 33.796875 -14.703125 
L 28.90625 -14.703125 
L 28.859375 0 
Q 23.734375 0.09375 18.609375 1.1875 
Q 13.484375 2.296875 8.296875 4.5 
L 8.296875 13.28125 
Q 13.28125 10.15625 18.375 8.5625 
Q 23.484375 6.984375 28.90625 6.9375 
L 28.90625 29.203125 
Q 18.109375 30.953125 13.203125 35.15625 
Q 8.296875 39.359375 8.296875 46.6875 
Q 8.296875 54.640625 13.625 59.21875 
Q 18.953125 63.8125 28.90625 64.5 
L 28.90625 75.984375 
L 33.796875 75.984375 
L 33.796875 64.65625 
Q 38.328125 64.453125 42.578125 63.6875 
Q 46.828125 62.9375 50.875 61.625 
L 50.875 53.078125 
Q 46.828125 55.125 42.546875 56.25 
Q 38.28125 57.375 33.796875 57.5625 
L 33.796875 36.71875 
Q 44.875 35.015625 50.09375 30.609375 
Q 55.328125 26.21875 55.328125 18.609375 
Q 55.328125 10.359375 49.78125 5.59375 
Q 44.234375 0.828125 33.796875 0.09375 
z
M 28.90625 37.59375 
L 28.90625 57.625 
Q 23.25 56.984375 20.265625 54.390625 
Q 17.28125 51.8125 17.28125 47.515625 
Q 17.28125 43.3125 20.03125 40.96875 
Q 22.796875 38.625 28.90625 37.59375 
z
M 33.796875 28.21875 
L 33.796875 7.078125 
Q 39.984375 7.90625 43.140625 10.59375 
Q 46.296875 13.28125 46.296875 17.671875 
Q 46.296875 21.96875 43.28125 24.5 
Q 40.28125 27.046875 33.796875 28.21875 
z
" id="DejaVuSans-36"/>
     <path d="M 50.984375 -16.609375 
L 50.984375 -23.578125 
L -0.984375 -23.578125 
L -0.984375 -16.609375 
z
" id="DejaVuSans-95"/>
     <path d="M 51.125 -9.28125 
L 51.125 -16.3125 
L 48.09375 -16.3125 
Q 35.9375 -16.3125 31.8125 -12.6875 
Q 27.6875 -9.078125 27.6875 1.703125 
L 27.6875 13.375 
Q 27.6875 20.75 25.046875 23.578125 
Q 22.40625 26.421875 15.484375 26.421875 
L 12.5 26.421875 
L 12.5 33.40625 
L 15.484375 33.40625 
Q 22.46875 33.40625 25.078125 36.203125 
Q 27.6875 39.015625 27.6875 46.296875 
L 27.6875 58.015625 
Q 27.6875 68.796875 31.8125 72.390625 
Q 35.9375 75.984375 48.09375 75.984375 
L 51.125 75.984375 
L 51.125 69 
L 47.796875 69 
Q 40.921875 69 38.8125 66.84375 
Q 36.71875 64.703125 36.71875 57.8125 
L 36.71875 45.703125 
Q 36.71875 38.03125 34.5 34.5625 
Q 32.28125 31.109375 26.90625 29.890625 
Q 32.328125 28.5625 34.515625 25.09375 
Q 36.71875 21.625 36.71875 14.015625 
L 36.71875 1.90625 
Q 36.71875 -4.984375 38.8125 -7.125 
Q 40.921875 -9.28125 47.796875 -9.28125 
z
" id="DejaVuSans-123"/>
     <path d="M 18.109375 8.203125 
L 18.109375 -20.796875 
L 9.078125 -20.796875 
L 9.078125 54.6875 
L 18.109375 54.6875 
L 18.109375 46.390625 
Q 20.953125 51.265625 25.265625 53.625 
Q 29.59375 56 35.59375 56 
Q 45.5625 56 51.78125 48.09375 
Q 58.015625 40.1875 58.015625 27.296875 
Q 58.015625 14.40625 51.78125 6.484375 
Q 45.5625 -1.421875 35.59375 -1.421875 
Q 29.59375 -1.421875 25.265625 0.953125 
Q 20.953125 3.328125 18.109375 8.203125 
z
M 48.6875 27.296875 
Q 48.6875 37.203125 44.609375 42.84375 
Q 40.53125 48.484375 33.40625 48.484375 
Q 26.265625 48.484375 22.1875 42.84375 
Q 18.109375 37.203125 18.109375 27.296875 
Q 18.109375 17.390625 22.1875 11.75 
Q 26.265625 6.109375 33.40625 6.109375 
Q 40.53125 6.109375 44.609375 11.75 
Q 48.6875 17.390625 48.6875 27.296875 
z
" id="DejaVuSans-112"/>
     <path d="M 56.203125 29.59375 
L 56.203125 25.203125 
L 14.890625 25.203125 
Q 15.484375 15.921875 20.484375 11.0625 
Q 25.484375 6.203125 34.421875 6.203125 
Q 39.59375 6.203125 44.453125 7.46875 
Q 49.3125 8.734375 54.109375 11.28125 
L 54.109375 2.78125 
Q 49.265625 0.734375 44.1875 -0.34375 
Q 39.109375 -1.421875 33.890625 -1.421875 
Q 20.796875 -1.421875 13.15625 6.1875 
Q 5.515625 13.8125 5.515625 26.8125 
Q 5.515625 40.234375 12.765625 48.109375 
Q 20.015625 56 32.328125 56 
Q 43.359375 56 49.78125 48.890625 
Q 56.203125 41.796875 56.203125 29.59375 
z
M 47.21875 32.234375 
Q 47.125 39.59375 43.09375 43.984375 
Q 39.0625 48.390625 32.421875 48.390625 
Q 24.90625 48.390625 20.390625 44.140625 
Q 15.875 39.890625 15.1875 32.171875 
z
" id="DejaVuSans-101"/>
     <path d="M 34.28125 27.484375 
Q 23.390625 27.484375 19.1875 25 
Q 14.984375 22.515625 14.984375 16.5 
Q 14.984375 11.71875 18.140625 8.90625 
Q 21.296875 6.109375 26.703125 6.109375 
Q 34.1875 6.109375 38.703125 11.40625 
Q 43.21875 16.703125 43.21875 25.484375 
L 43.21875 27.484375 
z
M 52.203125 31.203125 
L 52.203125 0 
L 43.21875 0 
L 43.21875 8.296875 
Q 40.140625 3.328125 35.546875 0.953125 
Q 30.953125 -1.421875 24.3125 -1.421875 
Q 15.921875 -1.421875 10.953125 3.296875 
Q 6 8.015625 6 15.921875 
Q 6 25.140625 12.171875 29.828125 
Q 18.359375 34.515625 30.609375 34.515625 
L 43.21875 34.515625 
L 43.21875 35.40625 
Q 43.21875 41.609375 39.140625 45 
Q 35.0625 48.390625 27.6875 48.390625 
Q 23 48.390625 18.546875 47.265625 
Q 14.109375 46.140625 10.015625 43.890625 
L 10.015625 52.203125 
Q 14.9375 54.109375 19.578125 55.046875 
Q 24.21875 56 28.609375 56 
Q 40.484375 56 46.34375 49.84375 
Q 52.203125 43.703125 52.203125 31.203125 
z
" id="DejaVuSans-97"/>
     <path d="M 9.078125 75.984375 
L 18.109375 75.984375 
L 18.109375 31.109375 
L 44.921875 54.6875 
L 56.390625 54.6875 
L 27.390625 29.109375 
L 57.625 0 
L 45.90625 0 
L 18.109375 26.703125 
L 18.109375 0 
L 9.078125 0 
z
" id="DejaVuSans-107"/>
     <path d="M 12.5 -9.28125 
L 15.921875 -9.28125 
Q 22.75 -9.28125 24.828125 -7.171875 
Q 26.90625 -5.078125 26.90625 1.90625 
L 26.90625 14.015625 
Q 26.90625 21.625 29.09375 25.09375 
Q 31.296875 28.5625 36.71875 29.890625 
Q 31.296875 31.109375 29.09375 34.5625 
Q 26.90625 38.03125 26.90625 45.703125 
L 26.90625 57.8125 
Q 26.90625 64.75 24.828125 66.875 
Q 22.75 69 15.921875 69 
L 12.5 69 
L 12.5 75.984375 
L 15.578125 75.984375 
Q 27.734375 75.984375 31.8125 72.390625 
Q 35.890625 68.796875 35.890625 58.015625 
L 35.890625 46.296875 
Q 35.890625 39.015625 38.515625 36.203125 
Q 41.15625 33.40625 48.09375 33.40625 
L 51.125 33.40625 
L 51.125 26.421875 
L 48.09375 26.421875 
Q 41.15625 26.421875 38.515625 23.578125 
Q 35.890625 20.75 35.890625 13.375 
L 35.890625 1.703125 
Q 35.890625 -9.078125 31.8125 -12.6875 
Q 27.734375 -16.3125 15.578125 -16.3125 
L 12.5 -16.3125 
z
" id="DejaVuSans-125"/>
     <path d="M 10.6875 12.40625 
L 21 12.40625 
L 21 0 
L 10.6875 0 
z
" id="DejaVuSans-46"/>
    </defs>
    <g transform="translate(184.072042 84.669177)rotate(-90)scale(0.0694 -0.0694)">
     <use xlink:href="#DejaVuSans-36"/>
     <use x="63.623047" xlink:href="#DejaVuSans-102"/>
     <use x="98.828125" xlink:href="#DejaVuSans-95"/>
     <use x="148.828125" xlink:href="#DejaVuSans-123"/>
     <use x="212.451172" xlink:href="#DejaVuSans-112"/>
     <use x="275.927734" xlink:href="#DejaVuSans-101"/>
     <use x="337.451172" xlink:href="#DejaVuSans-97"/>
     <use x="398.730469" xlink:href="#DejaVuSans-107"/>
     <use x="456.640625" xlink:href="#DejaVuSans-125"/>
     <use x="520.263672" xlink:href="#DejaVuSans-48"/>
     <use x="583.886719" xlink:href="#DejaVuSans-46"/>
     <use x="615.673828" xlink:href="#DejaVuSans-49"/>
     <use x="679.296875" xlink:href="#DejaVuSans-51"/>
     <use x="742.919922" xlink:href="#DejaVuSans-36"/>
    </g>
   </g>
   <g id="text_13">
    <!-- Power Spectral Density -->
    <defs>
     <path d="M 9.1875 72.90625 
L 40.375 72.90625 
Q 54.296875 72.90625 61.734375 66.71875 
Q 69.1875 60.546875 69.1875 49.125 
Q 69.1875 37.640625 61.734375 31.46875 
Q 54.296875 25.296875 40.375 25.296875 
L 27.984375 25.296875 
L 27.984375 0 
L 9.1875 0 
z
M 27.984375 59.28125 
L 27.984375 38.921875 
L 38.375 38.921875 
Q 43.84375 38.921875 46.828125 41.578125 
Q 49.8125 44.234375 49.8125 49.125 
Q 49.8125 54 46.828125 56.640625 
Q 43.84375 59.28125 38.375 59.28125 
z
" id="DejaVuSans-Bold-80"/>
     <path d="M 34.421875 43.5 
Q 28.609375 43.5 25.5625 39.328125 
Q 22.515625 35.15625 22.515625 27.296875 
Q 22.515625 19.4375 25.5625 15.25 
Q 28.609375 11.078125 34.421875 11.078125 
Q 40.140625 11.078125 43.15625 15.25 
Q 46.1875 19.4375 46.1875 27.296875 
Q 46.1875 35.15625 43.15625 39.328125 
Q 40.140625 43.5 34.421875 43.5 
z
M 34.421875 56 
Q 48.53125 56 56.46875 48.375 
Q 64.40625 40.765625 64.40625 27.296875 
Q 64.40625 13.8125 56.46875 6.1875 
Q 48.53125 -1.421875 34.421875 -1.421875 
Q 20.265625 -1.421875 12.28125 6.1875 
Q 4.296875 13.8125 4.296875 27.296875 
Q 4.296875 40.765625 12.28125 48.375 
Q 20.265625 56 34.421875 56 
z
" id="DejaVuSans-Bold-111"/>
     <path d="M 3.515625 54.6875 
L 20.515625 54.6875 
L 29.6875 17 
L 38.921875 54.6875 
L 53.515625 54.6875 
L 62.703125 17.390625 
L 71.921875 54.6875 
L 88.921875 54.6875 
L 74.515625 0 
L 55.421875 0 
L 46.1875 37.59375 
L 37.015625 0 
L 17.921875 0 
z
" id="DejaVuSans-Bold-119"/>
     <path d="M 62.984375 27.484375 
L 62.984375 22.515625 
L 22.125 22.515625 
Q 22.75 16.359375 26.5625 13.28125 
Q 30.375 10.203125 37.203125 10.203125 
Q 42.71875 10.203125 48.5 11.84375 
Q 54.296875 13.484375 60.40625 16.796875 
L 60.40625 3.328125 
Q 54.203125 0.984375 48 -0.21875 
Q 41.796875 -1.421875 35.59375 -1.421875 
Q 20.75 -1.421875 12.515625 6.125 
Q 4.296875 13.671875 4.296875 27.296875 
Q 4.296875 40.671875 12.375 48.328125 
Q 20.453125 56 34.625 56 
Q 47.515625 56 55.25 48.234375 
Q 62.984375 40.484375 62.984375 27.484375 
z
M 45.015625 33.296875 
Q 45.015625 38.28125 42.109375 41.328125 
Q 39.203125 44.390625 34.515625 44.390625 
Q 29.4375 44.390625 26.265625 41.53125 
Q 23.09375 38.671875 22.3125 33.296875 
z
" id="DejaVuSans-Bold-101"/>
     <path d="M 49.03125 39.796875 
Q 46.734375 40.875 44.453125 41.375 
Q 42.1875 41.890625 39.890625 41.890625 
Q 33.15625 41.890625 29.515625 37.5625 
Q 25.875 33.25 25.875 25.203125 
L 25.875 0 
L 8.40625 0 
L 8.40625 54.6875 
L 25.875 54.6875 
L 25.875 45.703125 
Q 29.25 51.078125 33.609375 53.53125 
Q 37.984375 56 44.09375 56 
Q 44.96875 56 45.984375 55.921875 
Q 47.015625 55.859375 48.96875 55.609375 
z
" id="DejaVuSans-Bold-114"/>
     <path id="DejaVuSans-Bold-32"/>
     <path d="M 59.90625 70.609375 
L 59.90625 55.171875 
Q 53.90625 57.859375 48.1875 59.21875 
Q 42.484375 60.59375 37.40625 60.59375 
Q 30.671875 60.59375 27.4375 58.734375 
Q 24.21875 56.890625 24.21875 52.984375 
Q 24.21875 50.046875 26.390625 48.40625 
Q 28.5625 46.78125 34.28125 45.609375 
L 42.28125 44 
Q 54.4375 41.546875 59.5625 36.5625 
Q 64.703125 31.59375 64.703125 22.40625 
Q 64.703125 10.359375 57.546875 4.46875 
Q 50.390625 -1.421875 35.6875 -1.421875 
Q 28.765625 -1.421875 21.78125 -0.09375 
Q 14.796875 1.21875 7.8125 3.8125 
L 7.8125 19.671875 
Q 14.796875 15.96875 21.3125 14.078125 
Q 27.828125 12.203125 33.890625 12.203125 
Q 40.046875 12.203125 43.3125 14.25 
Q 46.578125 16.3125 46.578125 20.125 
Q 46.578125 23.53125 44.359375 25.390625 
Q 42.140625 27.25 35.5 28.71875 
L 28.21875 30.328125 
Q 17.28125 32.671875 12.21875 37.796875 
Q 7.171875 42.921875 7.171875 51.609375 
Q 7.171875 62.5 14.203125 68.359375 
Q 21.234375 74.21875 34.421875 74.21875 
Q 40.4375 74.21875 46.78125 73.3125 
Q 53.125 72.40625 59.90625 70.609375 
z
" id="DejaVuSans-Bold-83"/>
     <path d="M 25.875 7.90625 
L 25.875 -20.796875 
L 8.40625 -20.796875 
L 8.40625 54.6875 
L 25.875 54.6875 
L 25.875 46.6875 
Q 29.5 51.46875 33.890625 53.734375 
Q 38.28125 56 44 56 
Q 54.109375 56 60.59375 47.96875 
Q 67.09375 39.9375 67.09375 27.296875 
Q 67.09375 14.65625 60.59375 6.609375 
Q 54.109375 -1.421875 44 -1.421875 
Q 38.28125 -1.421875 33.890625 0.84375 
Q 29.5 3.125 25.875 7.90625 
z
M 37.5 43.3125 
Q 31.890625 43.3125 28.875 39.1875 
Q 25.875 35.0625 25.875 27.296875 
Q 25.875 19.53125 28.875 15.40625 
Q 31.890625 11.28125 37.5 11.28125 
Q 43.109375 11.28125 46.0625 15.375 
Q 49.03125 19.484375 49.03125 27.296875 
Q 49.03125 35.109375 46.0625 39.203125 
Q 43.109375 43.3125 37.5 43.3125 
z
" id="DejaVuSans-Bold-112"/>
     <path d="M 52.59375 52.984375 
L 52.59375 38.71875 
Q 49.03125 41.15625 45.4375 42.328125 
Q 41.84375 43.5 37.984375 43.5 
Q 30.671875 43.5 26.59375 39.234375 
Q 22.515625 34.96875 22.515625 27.296875 
Q 22.515625 19.625 26.59375 15.34375 
Q 30.671875 11.078125 37.984375 11.078125 
Q 42.09375 11.078125 45.78125 12.296875 
Q 49.46875 13.53125 52.59375 15.921875 
L 52.59375 1.609375 
Q 48.484375 0.09375 44.265625 -0.65625 
Q 40.046875 -1.421875 35.796875 -1.421875 
Q 21 -1.421875 12.640625 6.171875 
Q 4.296875 13.765625 4.296875 27.296875 
Q 4.296875 40.828125 12.640625 48.40625 
Q 21 56 35.796875 56 
Q 40.09375 56 44.265625 55.25 
Q 48.4375 54.5 52.59375 52.984375 
z
" id="DejaVuSans-Bold-99"/>
     <path d="M 27.484375 70.21875 
L 27.484375 54.6875 
L 45.515625 54.6875 
L 45.515625 42.1875 
L 27.484375 42.1875 
L 27.484375 19 
Q 27.484375 15.1875 29 13.84375 
Q 30.515625 12.5 35.015625 12.5 
L 44 12.5 
L 44 0 
L 29 0 
Q 18.65625 0 14.328125 4.3125 
Q 10.015625 8.640625 10.015625 19 
L 10.015625 42.1875 
L 1.3125 42.1875 
L 1.3125 54.6875 
L 10.015625 54.6875 
L 10.015625 70.21875 
z
" id="DejaVuSans-Bold-116"/>
     <path d="M 32.90625 24.609375 
Q 27.4375 24.609375 24.671875 22.75 
Q 21.921875 20.90625 21.921875 17.28125 
Q 21.921875 13.96875 24.140625 12.078125 
Q 26.375 10.203125 30.328125 10.203125 
Q 35.25 10.203125 38.625 13.734375 
Q 42 17.28125 42 22.609375 
L 42 24.609375 
z
M 59.625 31.203125 
L 59.625 0 
L 42 0 
L 42 8.109375 
Q 38.484375 3.125 34.078125 0.84375 
Q 29.6875 -1.421875 23.390625 -1.421875 
Q 14.890625 -1.421875 9.59375 3.53125 
Q 4.296875 8.5 4.296875 16.40625 
Q 4.296875 26.03125 10.90625 30.515625 
Q 17.53125 35.015625 31.6875 35.015625 
L 42 35.015625 
L 42 36.375 
Q 42 40.53125 38.71875 42.453125 
Q 35.453125 44.390625 28.515625 44.390625 
Q 22.90625 44.390625 18.0625 43.265625 
Q 13.234375 42.140625 9.078125 39.890625 
L 9.078125 53.21875 
Q 14.703125 54.59375 20.359375 55.296875 
Q 26.03125 56 31.6875 56 
Q 46.484375 56 53.046875 50.171875 
Q 59.625 44.34375 59.625 31.203125 
z
" id="DejaVuSans-Bold-97"/>
     <path d="M 8.40625 75.984375 
L 25.875 75.984375 
L 25.875 0 
L 8.40625 0 
z
" id="DejaVuSans-Bold-108"/>
     <path d="M 27.984375 58.6875 
L 27.984375 14.203125 
L 34.71875 14.203125 
Q 46.234375 14.203125 52.3125 19.921875 
Q 58.40625 25.640625 58.40625 36.53125 
Q 58.40625 47.359375 52.34375 53.015625 
Q 46.296875 58.6875 34.71875 58.6875 
z
M 9.1875 72.90625 
L 29 72.90625 
Q 45.609375 72.90625 53.734375 70.53125 
Q 61.859375 68.171875 67.671875 62.5 
Q 72.796875 57.5625 75.28125 51.109375 
Q 77.78125 44.671875 77.78125 36.53125 
Q 77.78125 28.265625 75.28125 21.796875 
Q 72.796875 15.328125 67.671875 10.40625 
Q 61.8125 4.734375 53.609375 2.359375 
Q 45.40625 0 29 0 
L 9.1875 0 
z
" id="DejaVuSans-Bold-68"/>
     <path d="M 63.375 33.296875 
L 63.375 0 
L 45.796875 0 
L 45.796875 5.421875 
L 45.796875 25.484375 
Q 45.796875 32.5625 45.484375 35.25 
Q 45.171875 37.9375 44.390625 39.203125 
Q 43.359375 40.921875 41.59375 41.875 
Q 39.84375 42.828125 37.59375 42.828125 
Q 32.125 42.828125 29 38.59375 
Q 25.875 34.375 25.875 26.90625 
L 25.875 0 
L 8.40625 0 
L 8.40625 54.6875 
L 25.875 54.6875 
L 25.875 46.6875 
Q 29.828125 51.46875 34.265625 53.734375 
Q 38.71875 56 44.09375 56 
Q 53.5625 56 58.46875 50.1875 
Q 63.375 44.390625 63.375 33.296875 
z
" id="DejaVuSans-Bold-110"/>
     <path d="M 51.125 52.984375 
L 51.125 39.703125 
Q 45.515625 42.046875 40.28125 43.21875 
Q 35.0625 44.390625 30.421875 44.390625 
Q 25.4375 44.390625 23.015625 43.140625 
Q 20.609375 41.890625 20.609375 39.3125 
Q 20.609375 37.203125 22.4375 36.078125 
Q 24.265625 34.96875 29 34.421875 
L 32.078125 33.984375 
Q 45.515625 32.28125 50.140625 28.375 
Q 54.78125 24.46875 54.78125 16.109375 
Q 54.78125 7.375 48.328125 2.96875 
Q 41.890625 -1.421875 29.109375 -1.421875 
Q 23.6875 -1.421875 17.890625 -0.5625 
Q 12.109375 0.296875 6 2 
L 6 15.28125 
Q 11.234375 12.75 16.71875 11.46875 
Q 22.21875 10.203125 27.875 10.203125 
Q 33.015625 10.203125 35.59375 11.609375 
Q 38.1875 13.03125 38.1875 15.828125 
Q 38.1875 18.171875 36.40625 19.3125 
Q 34.625 20.453125 29.296875 21.09375 
L 26.21875 21.484375 
Q 14.546875 22.953125 9.859375 26.90625 
Q 5.171875 30.859375 5.171875 38.921875 
Q 5.171875 47.609375 11.125 51.796875 
Q 17.09375 56 29.390625 56 
Q 34.234375 56 39.546875 55.265625 
Q 44.875 54.546875 51.125 52.984375 
z
" id="DejaVuSans-Bold-115"/>
     <path d="M 8.40625 54.6875 
L 25.875 54.6875 
L 25.875 0 
L 8.40625 0 
z
M 8.40625 75.984375 
L 25.875 75.984375 
L 25.875 61.71875 
L 8.40625 61.71875 
z
" id="DejaVuSans-Bold-105"/>
     <path d="M 1.21875 54.6875 
L 18.703125 54.6875 
L 33.40625 17.578125 
L 45.90625 54.6875 
L 63.375 54.6875 
L 40.375 -5.171875 
Q 36.921875 -14.3125 32.296875 -17.9375 
Q 27.6875 -21.578125 20.125 -21.578125 
L 10.015625 -21.578125 
L 10.015625 -10.109375 
L 15.484375 -10.109375 
Q 19.921875 -10.109375 21.9375 -8.6875 
Q 23.96875 -7.28125 25.09375 -3.609375 
L 25.59375 -2.09375 
z
" id="DejaVuSans-Bold-121"/>
    </defs>
    <g transform="translate(149.149656 22.3392)scale(0.1 -0.1)">
     <use xlink:href="#DejaVuSans-Bold-80"/>
     <use x="73.291016" xlink:href="#DejaVuSans-Bold-111"/>
     <use x="141.992188" xlink:href="#DejaVuSans-Bold-119"/>
     <use x="234.375" xlink:href="#DejaVuSans-Bold-101"/>
     <use x="302.197266" xlink:href="#DejaVuSans-Bold-114"/>
     <use x="351.513672" xlink:href="#DejaVuSans-Bold-32"/>
     <use x="386.328125" xlink:href="#DejaVuSans-Bold-83"/>
     <use x="458.349609" xlink:href="#DejaVuSans-Bold-112"/>
     <use x="529.931641" xlink:href="#DejaVuSans-Bold-101"/>
     <use x="597.753906" xlink:href="#DejaVuSans-Bold-99"/>
     <use x="657.03125" xlink:href="#DejaVuSans-Bold-116"/>
     <use x="704.833984" xlink:href="#DejaVuSans-Bold-114"/>
     <use x="754.150391" xlink:href="#DejaVuSans-Bold-97"/>
     <use x="821.630859" xlink:href="#DejaVuSans-Bold-108"/>
     <use x="855.908203" xlink:href="#DejaVuSans-Bold-32"/>
     <use x="890.722656" xlink:href="#DejaVuSans-Bold-68"/>
     <use x="973.730469" xlink:href="#DejaVuSans-Bold-101"/>
     <use x="1041.552734" xlink:href="#DejaVuSans-Bold-110"/>
     <use x="1112.744141" xlink:href="#DejaVuSans-Bold-115"/>
     <use x="1172.265625" xlink:href="#DejaVuSans-Bold-105"/>
     <use x="1206.542969" xlink:href="#DejaVuSans-Bold-116"/>
     <use x="1254.345703" xlink:href="#DejaVuSans-Bold-121"/>
    </g>
   </g>
   <g id="legend_1">
    <g id="patch_7">
     <path d="M 306.4415 46.4817 
L 372.184 46.4817 
Q 373.784 46.4817 373.784 44.8817 
L 373.784 33.9392 
Q 373.784 32.3392 372.184 32.3392 
L 306.4415 32.3392 
Q 304.8415 32.3392 304.8415 33.9392 
L 304.8415 44.8817 
Q 304.8415 46.4817 306.4415 46.4817 
z
" style="fill:#ffffff;opacity:0.8;stroke:#cccccc;stroke-linejoin:miter;"/>
    </g>
    <g id="line2d_167">
     <path d="M 308.0415 38.81795 
L 324.0415 38.81795 
" style="fill:none;stroke:#323232;stroke-linecap:square;stroke-width:1.5;"/>
    </g>
    <g id="line2d_168"/>
    <g id="text_14">
     <!-- measured -->
     <defs>
      <path d="M 52 44.1875 
Q 55.375 50.25 60.0625 53.125 
Q 64.75 56 71.09375 56 
Q 79.640625 56 84.28125 50.015625 
Q 88.921875 44.046875 88.921875 33.015625 
L 88.921875 0 
L 79.890625 0 
L 79.890625 32.71875 
Q 79.890625 40.578125 77.09375 44.375 
Q 74.3125 48.1875 68.609375 48.1875 
Q 61.625 48.1875 57.5625 43.546875 
Q 53.515625 38.921875 53.515625 30.90625 
L 53.515625 0 
L 44.484375 0 
L 44.484375 32.71875 
Q 44.484375 40.625 41.703125 44.40625 
Q 38.921875 48.1875 33.109375 48.1875 
Q 26.21875 48.1875 22.15625 43.53125 
Q 18.109375 38.875 18.109375 30.90625 
L 18.109375 0 
L 9.078125 0 
L 9.078125 54.6875 
L 18.109375 54.6875 
L 18.109375 46.1875 
Q 21.1875 51.21875 25.484375 53.609375 
Q 29.78125 56 35.6875 56 
Q 41.65625 56 45.828125 52.96875 
Q 50 49.953125 52 44.1875 
z
" id="DejaVuSans-109"/>
      <path d="M 44.28125 53.078125 
L 44.28125 44.578125 
Q 40.484375 46.53125 36.375 47.5 
Q 32.28125 48.484375 27.875 48.484375 
Q 21.1875 48.484375 17.84375 46.4375 
Q 14.5 44.390625 14.5 40.28125 
Q 14.5 37.15625 16.890625 35.375 
Q 19.28125 33.59375 26.515625 31.984375 
L 29.59375 31.296875 
Q 39.15625 29.25 43.1875 25.515625 
Q 47.21875 21.78125 47.21875 15.09375 
Q 47.21875 7.46875 41.1875 3.015625 
Q 35.15625 -1.421875 24.609375 -1.421875 
Q 20.21875 -1.421875 15.453125 -0.5625 
Q 10.6875 0.296875 5.421875 2 
L 5.421875 11.28125 
Q 10.40625 8.6875 15.234375 7.390625 
Q 20.0625 6.109375 24.8125 6.109375 
Q 31.15625 6.109375 34.5625 8.28125 
Q 37.984375 10.453125 37.984375 14.40625 
Q 37.984375 18.0625 35.515625 20.015625 
Q 33.0625 21.96875 24.703125 23.78125 
L 21.578125 24.515625 
Q 13.234375 26.265625 9.515625 29.90625 
Q 5.8125 33.546875 5.8125 39.890625 
Q 5.8125 47.609375 11.28125 51.796875 
Q 16.75 56 26.8125 56 
Q 31.78125 56 36.171875 55.265625 
Q 40.578125 54.546875 44.28125 53.078125 
z
" id="DejaVuSans-115"/>
      <path d="M 8.5 21.578125 
L 8.5 54.6875 
L 17.484375 54.6875 
L 17.484375 21.921875 
Q 17.484375 14.15625 20.5 10.265625 
Q 23.53125 6.390625 29.59375 6.390625 
Q 36.859375 6.390625 41.078125 11.03125 
Q 45.3125 15.671875 45.3125 23.6875 
L 45.3125 54.6875 
L 54.296875 54.6875 
L 54.296875 0 
L 45.3125 0 
L 45.3125 8.40625 
Q 42.046875 3.421875 37.71875 1 
Q 33.40625 -1.421875 27.6875 -1.421875 
Q 18.265625 -1.421875 13.375 4.4375 
Q 8.5 10.296875 8.5 21.578125 
z
M 31.109375 56 
z
" id="DejaVuSans-117"/>
      <path d="M 41.109375 46.296875 
Q 39.59375 47.171875 37.8125 47.578125 
Q 36.03125 48 33.890625 48 
Q 26.265625 48 22.1875 43.046875 
Q 18.109375 38.09375 18.109375 28.8125 
L 18.109375 0 
L 9.078125 0 
L 9.078125 54.6875 
L 18.109375 54.6875 
L 18.109375 46.1875 
Q 20.953125 51.171875 25.484375 53.578125 
Q 30.03125 56 36.53125 56 
Q 37.453125 56 38.578125 55.875 
Q 39.703125 55.765625 41.0625 55.515625 
z
" id="DejaVuSans-114"/>
      <path d="M 45.40625 46.390625 
L 45.40625 75.984375 
L 54.390625 75.984375 
L 54.390625 0 
L 45.40625 0 
L 45.40625 8.203125 
Q 42.578125 3.328125 38.25 0.953125 
Q 33.9375 -1.421875 27.875 -1.421875 
Q 17.96875 -1.421875 11.734375 6.484375 
Q 5.515625 14.40625 5.515625 27.296875 
Q 5.515625 40.1875 11.734375 48.09375 
Q 17.96875 56 27.875 56 
Q 33.9375 56 38.25 53.625 
Q 42.578125 51.265625 45.40625 46.390625 
z
M 14.796875 27.296875 
Q 14.796875 17.390625 18.875 11.75 
Q 22.953125 6.109375 30.078125 6.109375 
Q 37.203125 6.109375 41.296875 11.75 
Q 45.40625 17.390625 45.40625 27.296875 
Q 45.40625 37.203125 41.296875 42.84375 
Q 37.203125 48.484375 30.078125 48.484375 
Q 22.953125 48.484375 18.875 42.84375 
Q 14.796875 37.203125 14.796875 27.296875 
z
" id="DejaVuSans-100"/>
     </defs>
     <g transform="translate(330.4415 41.61795)scale(0.08 -0.08)">
      <use xlink:href="#DejaVuSans-109"/>
      <use x="97.412109" xlink:href="#DejaVuSans-101"/>
      <use x="158.935547" xlink:href="#DejaVuSans-97"/>
      <use x="220.214844" xlink:href="#DejaVuSans-115"/>
      <use x="272.314453" xlink:href="#DejaVuSans-117"/>
      <use x="335.693359" xlink:href="#DejaVuSans-114"/>
      <use x="376.775391" xlink:href="#DejaVuSans-101"/>
      <use x="438.298828" xlink:href="#DejaVuSans-100"/>
     </g>
    </g>
   </g>
   <g id="line2d_169">
    <path clip-path="url(#pfdbc5220c2)" d="M 185.708364 210.1824 
L 185.708364 28.3392 
" style="fill:none;stroke:#000000;stroke-dasharray:3.7,1.6;stroke-dashoffset:0;"/>
   </g>
  </g>
 </g>
 <defs>
  <clipPath id="pfdbc5220c2">
   <rect height="181.8432" width="325.314" x="52.47" y="28.3392"/>
  </clipPath>
 </defs>
</svg>
